<svg xmlns="http://www.w3.org/2000/svg" id="Layer_1" viewBox="0 0 1310.4 197.65083" width="1310.4" height="197.65083"><style id="style2">.st0{fill:#305867}.st1{fill:#04a288}.st2{fill:#74b6ad}</style><path class="st0" d="M1018.3 4.126c16-4.8 33-5.1 49.4-2.5 12.2 2.2 24.2 6.4 34.5 13.4l.9.4c8.1 5.7 15.5 12.4 21.4 20.4-8 6.7-14.9 14.4-22.7 21.4-2.1 1.7-4 3.6-5.8 5.6-8.8-9.7-19-19.3-32.1-22.5-14.7-3.1-30.9-1.9-43.8 6.4-13.2 8.6-21.8 23.1-24.4 38.5-2.6 15.6-1.4 32.5 6.6 46.5 9.3 17.5 29.4 28.2 49.1 27.2 13.1.5 26.6-2.8 37-11.1-.1-8.1 0-16.1 0-24.2h-33.1v-33.4h72.2v81c-17.8 15.3-40.9 23.9-64.2 25.8-17 1.4-34.4.7-50.7-4.7-14.1-4.6-27.2-12.5-37.3-23.4-7.8-8.4-13.8-18.4-17.7-29.2-6.1-16.5-7.8-34.5-6.3-52.1 1.8-18.8 8.7-37.4 20.6-52.2 11.6-15 28.2-25.9 46.4-31.3zm-833.3 1c42.8 0 85.5.1 128.2-.1-.1 12.2-.1 24.4 0 36.6-28.7-.3-57.5.1-86.2-.2.1 12.6.2 25.2 0 37.8 22.3-.2 44.6 0 66.8-.1-.1 11.8-.1 23.6 0 35.5-22.3-.1-44.5.1-66.8-.1.2 13.6.2 27.2 0 40.8 30.8-.2 61.6 0 92.4-.1v37.4H184.9c.2-62.6.2-125.1.1-187.5zm182.5 0h40.2c13.8 24.9 27.7 49.8 41.7 74.7 2.7 4.3 4.4 9.3 8 13.1 15.4-29.5 31.9-58.4 47.4-87.8 13.5 0 27 .1 40.5-.1 2.8 62.5 5.8 125 8.7 187.5-14.1 0-28.2-.1-42.2.1-1.7-40.6-3.5-81.2-5.3-121.8l-2.1 1.8c-12.1 23.5-24.9 46.6-37.1 70h-21.9c-11.2-19.9-22.7-39.6-34-59.5-2-3.5-4.2-7-5.8-10.7-.4-.1-1.3-.4-1.8-.5-1.4 40.3-3.2 80.5-4.6 120.8-13.4-.2-26.9-.1-40.3 0 2.7-57.6 5.3-115.1 8-172.7.3-5.1.5-10 .6-14.9zm808.5 0c42.7 0 85.5.1 128.2-.1-.1 12.2-.1 24.4 0 36.6-28.7-.3-57.4.1-86.2-.2.1 12.6.1 25.2 0 37.8 22.3-.2 44.5 0 66.8-.1-.1 11.8-.1 23.6 0 35.5-22.3-.1-44.5.1-66.8-.1.1 13.6.1 27.2 0 40.8 30.8-.2 61.6 0 92.4-.1v37.4H1176c.1-62.6.1-125.1 0-187.5z" id="path4" fill="#305867"/><path class="st1" d="M601.2 6.926h52.5l.6.4c17.3 12.5 34.6 25.1 52 37.4-35 .3-70 0-105.1.1 0-12.6.1-25.3 0-37.9z" id="path6" fill="#04a288"/><path class="st2" d="M654.3 7.326c24.7-.1 49.4 0 74.1 0-.1 12.2.2 24.4-.1 36.6-.2.2-.7.6-.9.8-7 .2-14.1.2-21.1 0-17.4-12.3-34.7-24.9-52-37.4z" id="path8" fill="#74b6ad"/><path class="st0" d="M105.1 117.126c4.7-2.7 9.4-5.7 13.1-9.7 10.3-9.8 16.1-23.7 17.1-37.7 1.4-15.9-2.8-32.9-13.7-44.9-11.9-13-29.8-19.1-47.1-19.7-24.9-.1-49.7 0-74.5 0 .1 62.5.1 125 0 187.5 13.8 0 27.5-.1 41.2.1-.3-23 .1-46.1-.2-69.2 8.1.2 16.2 0 24.3.1 2.2 5.5 5.2 10.5 7.7 15.8 4.7 8.7 8.7 17.9 13.7 26.4 0 .2.1.7.1.9.6 1 1.1 1.9 1.7 2.9.2.5.7 1.5 1 2.1.5 1.1 1 2.1 1.5 3.1 2.7 6.1 6.3 11.7 8.9 17.8 15.5 0 31.1-.2 46.6.1-13.7-23.8-26.6-48.1-40.2-72-.5-1.2-1.4-2.3-1.2-3.6zm-12.4-47.1c-1.4 9.6-9.2 18.1-19 19.4-10.8 1.3-21.7.3-32.6.7.2-16.9.2-33.8 0-50.8 9.4.3 18.8-.2 28.2.3 6.1.2 12.4 2.1 16.8 6.6 6.3 5.9 7.8 15.5 6.6 23.8zm789.6 50.6c-.6-1.1-1.4-2.2-1.2-3.5 11.9-6.4 21.5-17.1 26.3-29.7 4.5-12.2 5.3-25.8 2.4-38.4-2.4-11-8.3-21.3-16.9-28.7-12.3-10.4-28.6-15.1-44.5-15.3H776c.1 62.5.1 125 0 187.5 13.8 0 27.5-.1 41.2.1-.3-23 .1-46.1-.2-69.2 8.1.2 16.2 0 24.3.1.9 2.4 2 4.7 3.2 6.9 6.1 11.7 11.7 23.8 18.2 35.3 0 .2.1.7.1.9.5 1 1.1 1.9 1.7 2.9.2.5.7 1.5 1 2.1.5 1 1 2.1 1.5 3.1 2.7 6.1 6.3 11.7 8.9 17.8 15.5 0 31.1-.2 46.6.1-13.7-23.8-26.6-48.1-40.2-72zm-19-38.9c-3.9 4.8-9.8 7.6-15.9 8-10.1.8-20.3.1-30.4.5.1-16.9.2-33.9 0-50.8 10.5.4 21-.4 31.5.5 8.7.8 16.7 7.1 19.2 15.5 2.6 8.8 1.7 19.2-4.4 26.3z" id="path10" fill="#305867"/><path class="st1" d="M601.2 80.626c35.8.1 71.6-.1 107.4.1-16.5 7.6-33.5 14.1-50.2 21.3-12.6 5.4-25.3 10.5-37.9 15.9-6.4.9-12.9.1-19.3.4z" id="path12" fill="#04a288"/><path class="st2" d="M708.7 80.726l.3-.1c6.1.4 12.3-.1 18.5.3l.9.9c.3 6.3 0 12.7.1 19-.2 5.8.4 11.6-.4 17.3-35.8-.3-71.7.2-107.5-.2 12.6-5.4 25.3-10.6 37.9-15.9 16.7-7.2 33.7-13.7 50.2-21.3z" id="path14" fill="#74b6ad"/><path class="st1" d="M601.2 154.926h24.2c1.6.1 3.4-.3 5 .5 20 12.4 39.9 25 59.9 37.3-29.7.3-59.4.1-89.1.1 0-12.6.1-25.3 0-37.9z" id="path16" fill="#04a288"/><path class="st2" d="M630.4 155.426c32.7-.3 65.4 0 98-.1 0 11.9.1 23.8 0 35.7.2 2.2-2.6 1.9-4 1.9-11.4-.2-22.8.2-34.1-.1-20-12.4-39.9-25.1-59.9-37.4z" id="path18" fill="#74b6ad"/></svg>